<svg width="136" height="52" viewBox="0 0 136 52" fill="none" xmlns="http://www.w3.org/2000/svg">
<path opacity="0.6" d="M3.08239 15L0.298295 4.81818H1.55114L3.67898 13.1108H3.77841L5.94602 4.81818H7.33807L9.50568 13.1108H9.60511L11.733 4.81818H12.9858L10.2017 15H8.92898L6.68182 6.88636H6.60227L4.35511 15H3.08239ZM16.8537 15.1591C16.1179 15.1591 15.4832 14.9967 14.9496 14.6719C14.4193 14.3438 14.0099 13.8864 13.7216 13.2997C13.4366 12.7098 13.294 12.0237 13.294 11.2415C13.294 10.4593 13.4366 9.76989 13.7216 9.1733C14.0099 8.57339 14.411 8.10606 14.9247 7.77131C15.4418 7.43324 16.045 7.2642 16.7344 7.2642C17.1321 7.2642 17.5249 7.33049 17.9126 7.46307C18.3004 7.59564 18.6534 7.81108 18.9716 8.10938C19.2898 8.40436 19.5433 8.79545 19.7322 9.28267C19.9212 9.76989 20.0156 10.3698 20.0156 11.0824V11.5795H14.1293V10.5653H18.8224C18.8224 10.1345 18.7363 9.75 18.5639 9.41193C18.3949 9.07386 18.1529 8.80705 17.8381 8.61151C17.5265 8.41596 17.1586 8.31818 16.7344 8.31818C16.267 8.31818 15.8627 8.43419 15.5213 8.66619C15.1832 8.89489 14.9231 9.19318 14.7408 9.56108C14.5585 9.92898 14.4673 10.3234 14.4673 10.7443V11.4205C14.4673 11.9972 14.5668 12.486 14.7656 12.8871C14.9678 13.2848 15.2479 13.5881 15.6058 13.7969C15.9638 14.0024 16.3797 14.1051 16.8537 14.1051C17.1619 14.1051 17.4403 14.062 17.6889 13.9759C17.9408 13.8864 18.1579 13.7538 18.3402 13.5781C18.5225 13.3991 18.6634 13.1771 18.7628 12.9119L19.8963 13.2301C19.777 13.6146 19.5765 13.9527 19.2947 14.2443C19.013 14.5327 18.665 14.758 18.2507 14.9205C17.8364 15.0795 17.3707 15.1591 16.8537 15.1591ZM27.9851 15.179C27.5012 15.179 27.062 15.0878 26.6676 14.9055C26.2732 14.7199 25.96 14.4531 25.728 14.1051C25.496 13.7538 25.38 13.3295 25.38 12.8324C25.38 12.3949 25.4661 12.0402 25.6385 11.7685C25.8108 11.4934 26.0412 11.2779 26.3295 11.1222C26.6179 10.9664 26.9361 10.8504 27.2841 10.7741C27.6354 10.6946 27.9884 10.6316 28.343 10.5852C28.8071 10.5256 29.1832 10.4808 29.4716 10.451C29.7633 10.4179 29.9754 10.3632 30.108 10.2869C30.2438 10.2107 30.3118 10.0781 30.3118 9.8892V9.84943C30.3118 9.3589 30.1776 8.97775 29.9091 8.70597C29.6439 8.43419 29.2412 8.2983 28.701 8.2983C28.1409 8.2983 27.7017 8.42093 27.3835 8.66619C27.0653 8.91146 26.8416 9.1733 26.7124 9.4517L25.5987 9.05398C25.7976 8.58996 26.0627 8.22869 26.3942 7.97017C26.7289 7.70833 27.0935 7.52604 27.4879 7.4233C27.8857 7.31723 28.2768 7.2642 28.6612 7.2642C28.9065 7.2642 29.1882 7.29403 29.5064 7.35369C29.8279 7.41004 30.1378 7.5277 30.4361 7.70668C30.7377 7.88565 30.9879 8.15578 31.1868 8.51705C31.3857 8.87831 31.4851 9.36222 31.4851 9.96875V15H30.3118V13.9659H30.2521C30.1726 14.1316 30.04 14.3089 29.8544 14.4979C29.6688 14.6868 29.4219 14.8475 29.1136 14.9801C28.8054 15.1127 28.4292 15.179 27.9851 15.179ZM28.1641 14.125C28.6281 14.125 29.0192 14.0339 29.3374 13.8516C29.6589 13.6693 29.9008 13.4339 30.0632 13.1456C30.2289 12.8572 30.3118 12.554 30.3118 12.2358V11.1619C30.2621 11.2216 30.1527 11.2763 29.9837 11.326C29.8179 11.3724 29.6257 11.4138 29.407 11.4503C29.1915 11.4834 28.9811 11.5133 28.7756 11.5398C28.5734 11.563 28.4093 11.5829 28.2834 11.5994C27.9785 11.6392 27.6934 11.7038 27.4283 11.7933C27.1664 11.8795 26.9543 12.0104 26.7919 12.1861C26.6328 12.3584 26.5533 12.5937 26.5533 12.892C26.5533 13.2997 26.7041 13.608 27.0057 13.8168C27.3106 14.0223 27.6967 14.125 28.1641 14.125ZM33.6266 15V7.36364H34.7601V8.51705H34.8397C34.9789 8.1392 35.2308 7.83262 35.5953 7.5973C35.9599 7.36198 36.3709 7.24432 36.8283 7.24432C36.9145 7.24432 37.0222 7.24597 37.1515 7.24929C37.2807 7.2526 37.3785 7.25758 37.4448 7.2642V8.45739C37.405 8.44744 37.3139 8.43253 37.1713 8.41264C37.0321 8.38944 36.8846 8.37784 36.7289 8.37784C36.3577 8.37784 36.0262 8.45573 35.7346 8.61151C35.4462 8.76397 35.2175 8.97609 35.0485 9.24787C34.8828 9.51634 34.7999 9.82292 34.7999 10.1676V15H33.6266ZM41.8049 15.1591C41.0691 15.1591 40.4344 14.9967 39.9007 14.6719C39.3704 14.3438 38.9611 13.8864 38.6728 13.2997C38.3877 12.7098 38.2452 12.0237 38.2452 11.2415C38.2452 10.4593 38.3877 9.76989 38.6728 9.1733C38.9611 8.57339 39.3622 8.10606 39.8759 7.77131C40.3929 7.43324 40.9962 7.2642 41.6855 7.2642C42.0833 7.2642 42.476 7.33049 42.8638 7.46307C43.2516 7.59564 43.6046 7.81108 43.9228 8.10938C44.2409 8.40436 44.4945 8.79545 44.6834 9.28267C44.8723 9.76989 44.9668 10.3698 44.9668 11.0824V11.5795H39.0804V10.5653H43.7736C43.7736 10.1345 43.6874 9.75 43.5151 9.41193C43.3461 9.07386 43.1041 8.80705 42.7892 8.61151C42.4777 8.41596 42.1098 8.31818 41.6855 8.31818C41.2182 8.31818 40.8139 8.43419 40.4725 8.66619C40.1344 8.89489 39.8742 9.19318 39.6919 9.56108C39.5096 9.92898 39.4185 10.3234 39.4185 10.7443V11.4205C39.4185 11.9972 39.5179 12.486 39.7168 12.8871C39.919 13.2848 40.199 13.5881 40.557 13.7969C40.915 14.0024 41.3309 14.1051 41.8049 14.1051C42.1131 14.1051 42.3915 14.062 42.6401 13.9759C42.892 13.8864 43.1091 13.7538 43.2914 13.5781C43.4737 13.3991 43.6145 13.1771 43.714 12.9119L44.8475 13.2301C44.7282 13.6146 44.5276 13.9527 44.2459 14.2443C43.9642 14.5327 43.6162 14.758 43.2019 14.9205C42.7876 15.0795 42.3219 15.1591 41.8049 15.1591Z" fill="#6D6E76"/>
<path d="M11.7656 35.1875V38.1172H5.60156V44H2.34375V28.2969H13.0547V31.2266H5.60156V35.1875H11.7656ZM21.8906 31.8594C23.0469 31.8594 24.0391 32.1094 24.8672 32.6094C25.7109 33.1094 26.3516 33.8047 26.7891 34.6953C27.2422 35.5703 27.4688 36.5859 27.4688 37.7422V39.0078H18.8906C19.0469 39.8047 19.4375 40.4453 20.0625 40.9297C20.6875 41.4141 21.4531 41.6562 22.3594 41.6562C23.2188 41.6562 24 41.4844 24.7031 41.1406C25.4062 40.7969 25.9688 40.4453 26.3906 40.0859L26.3672 42.8516C25.9922 43.1797 25.4297 43.5156 24.6797 43.8594C23.9453 44.1875 23.1328 44.3516 22.2422 44.3516C21.0703 44.3516 20 44.0859 19.0312 43.5547C18.0781 43.0234 17.3125 42.2969 16.7344 41.375C16.1719 40.4531 15.8906 39.3984 15.8906 38.2109C15.8906 37.0547 16.1484 36 16.6641 35.0469C17.1797 34.0938 17.8906 33.3281 18.7969 32.75C19.7031 32.1562 20.7344 31.8594 21.8906 31.8594ZM21.8203 34.4609C21.0859 34.4609 20.4688 34.6875 19.9688 35.1406C19.4688 35.5938 19.125 36.2031 18.9375 36.9688H24.6094C24.5469 36.125 24.2344 35.5 23.6719 35.0938C23.1094 34.6719 22.4922 34.4609 21.8203 34.4609ZM34.875 31.8594C35.5156 31.8594 36.1641 32.0078 36.8203 32.3047C37.4766 32.6016 38.0234 33 38.4609 33.5V32.1641H41.4375V44H38.4609V42.0078C38.1172 42.6484 37.6172 43.2031 36.9609 43.6719C36.3047 44.125 35.5391 44.3516 34.6641 44.3516C33.7109 44.3516 32.8281 44.1094 32.0156 43.625C31.2188 43.1406 30.5781 42.4375 30.0938 41.5156C29.6094 40.5938 29.3672 39.4766 29.3672 38.1641C29.3672 36.8516 29.6094 35.7266 30.0938 34.7891C30.5938 33.8516 31.2578 33.1328 32.0859 32.6328C32.9297 32.1172 33.8594 31.8594 34.875 31.8594ZM35.4844 34.7656C34.8594 34.7656 34.3203 34.9297 33.8672 35.2578C33.4297 35.5703 33.0859 35.9844 32.8359 36.5C32.5859 37.0156 32.4609 37.5703 32.4609 38.1641C32.4609 39.0547 32.7266 39.8125 33.2578 40.4375C33.8047 41.0625 34.5234 41.375 35.4141 41.375C35.9453 41.375 36.4375 41.2344 36.8906 40.9531C37.3594 40.6719 37.7344 40.2812 38.0156 39.7812C38.3125 39.2656 38.4609 38.6484 38.4609 37.9297V36.2422C38.0391 35.7891 37.5781 35.4297 37.0781 35.1641C36.5938 34.8984 36.0625 34.7656 35.4844 34.7656ZM49.3828 28.7188V32.1641H52.6641V34.6484H49.3828V39.7578C49.3828 40.2891 49.5 40.7109 49.7344 41.0234C49.9844 41.3203 50.3516 41.4688 50.8359 41.4688C51.2578 41.4688 51.6172 41.4219 51.9141 41.3281C52.2266 41.2344 52.5156 41.1016 52.7812 40.9297V43.2969C52.4844 43.5938 52.1094 43.8438 51.6562 44.0469C51.2188 44.25 50.6641 44.3516 49.9922 44.3516C48.9297 44.3516 48.0625 44.0156 47.3906 43.3438C46.7344 42.6562 46.4062 41.7188 46.4062 40.5312V34.6484H44.2734V33.125C45.0234 32.8594 45.7109 32.3594 46.3359 31.625C46.9766 30.8906 47.4844 29.9219 47.8594 28.7188H49.3828ZM66.2812 32.1641V39.2188C66.2812 40.2656 66.0469 41.1719 65.5781 41.9375C65.1094 42.6875 64.4688 43.2656 63.6562 43.6719C62.8594 44.0781 61.9531 44.2812 60.9375 44.2812C59.9062 44.2812 58.9844 44.0781 58.1719 43.6719C57.375 43.2656 56.7422 42.6875 56.2734 41.9375C55.8203 41.1719 55.5938 40.2656 55.5938 39.2188V32.1641H58.5938L58.6172 38.6797C58.6172 39.6016 58.8281 40.2891 59.25 40.7422C59.6719 41.1953 60.2344 41.4219 60.9375 41.4219C61.625 41.4219 62.1797 41.1953 62.6016 40.7422C63.0391 40.2891 63.2578 39.6016 63.2578 38.6797V32.1641H66.2812ZM77.1328 35.4922C76.6328 35.2109 76.1094 35.0703 75.5625 35.0703C74.875 35.0703 74.3047 35.2969 73.8516 35.75C73.3984 36.1875 73 36.7344 72.6562 37.3906V44H69.6797V32.1641H72.6562V34.3906C73.0625 33.6875 73.5391 33.1016 74.0859 32.6328C74.6484 32.1641 75.2812 31.9297 75.9844 31.9297C76.4062 31.9297 76.7891 32 77.1328 32.1406V35.4922ZM84.6094 31.8594C85.7656 31.8594 86.7578 32.1094 87.5859 32.6094C88.4297 33.1094 89.0703 33.8047 89.5078 34.6953C89.9609 35.5703 90.1875 36.5859 90.1875 37.7422V39.0078H81.6094C81.7656 39.8047 82.1562 40.4453 82.7812 40.9297C83.4062 41.4141 84.1719 41.6562 85.0781 41.6562C85.9375 41.6562 86.7188 41.4844 87.4219 41.1406C88.125 40.7969 88.6875 40.4453 89.1094 40.0859L89.0859 42.8516C88.7109 43.1797 88.1484 43.5156 87.3984 43.8594C86.6641 44.1875 85.8516 44.3516 84.9609 44.3516C83.7891 44.3516 82.7188 44.0859 81.75 43.5547C80.7969 43.0234 80.0312 42.2969 79.4531 41.375C78.8906 40.4531 78.6094 39.3984 78.6094 38.2109C78.6094 37.0547 78.8672 36 79.3828 35.0469C79.8984 34.0938 80.6094 33.3281 81.5156 32.75C82.4219 32.1562 83.4531 31.8594 84.6094 31.8594ZM84.5391 34.4609C83.8047 34.4609 83.1875 34.6875 82.6875 35.1406C82.1875 35.5938 81.8438 36.2031 81.6562 36.9688H87.3281C87.2656 36.125 86.9531 35.5 86.3906 35.0938C85.8281 34.6719 85.2109 34.4609 84.5391 34.4609ZM104.156 27.125V44H101.18V42.0078C100.836 42.6484 100.336 43.2031 99.6797 43.6719C99.0234 44.125 98.2578 44.3516 97.3828 44.3516C96.4297 44.3516 95.5469 44.1094 94.7344 43.625C93.9375 43.1406 93.2969 42.4375 92.8125 41.5156C92.3281 40.5938 92.0859 39.4766 92.0859 38.1641C92.0859 36.8516 92.3281 35.7266 92.8125 34.7891C93.3125 33.8516 93.9766 33.1328 94.8047 32.6328C95.6484 32.1172 96.5781 31.8594 97.5938 31.8594C98.2344 31.8594 98.8828 32.0078 99.5391 32.3047C100.195 32.6016 100.742 33 101.18 33.5V27.125H104.156ZM98.2031 34.7891C97.5781 34.7891 97.0391 34.9531 96.5859 35.2812C96.1484 35.5938 95.8047 36.0078 95.5547 36.5234C95.3047 37.0234 95.1797 37.5703 95.1797 38.1641C95.1797 39.0547 95.4453 39.8125 95.9766 40.4375C96.5234 41.0625 97.2422 41.375 98.1328 41.375C98.6641 41.375 99.1562 41.2344 99.6094 40.9531C100.078 40.6719 100.453 40.2812 100.734 39.7812C101.031 39.2656 101.18 38.6484 101.18 37.9297V36.2422C100.758 35.7891 100.297 35.4375 99.7969 35.1875C99.3125 34.9219 98.7812 34.7891 98.2031 34.7891ZM117.328 26C117.891 26 118.375 26.2031 118.781 26.6094C119.188 27 119.391 27.4688 119.391 28.0156C119.391 28.5469 119.188 29.0156 118.781 29.4219C118.375 29.8281 117.891 30.0312 117.328 30.0312C116.766 30.0312 116.281 29.8281 115.875 29.4219C115.484 29.0156 115.289 28.5469 115.289 28.0156C115.289 27.4688 115.484 27 115.875 26.6094C116.281 26.2031 116.766 26 117.328 26ZM119.062 32.1641V44H116.086V34.6953H114.188V32.1641H119.062ZM125.789 32.1641V33.8516C126.148 33.3672 126.633 32.9141 127.242 32.4922C127.867 32.0703 128.578 31.8594 129.375 31.8594C130.578 31.8594 131.586 32.2656 132.398 33.0781C133.211 33.8906 133.617 35.1094 133.617 36.7344V44H130.641L130.617 37.1328C130.617 36.3359 130.422 35.7422 130.031 35.3516C129.656 34.9609 129.133 34.7656 128.461 34.7656C127.93 34.7656 127.43 34.9375 126.961 35.2812C126.508 35.625 126.117 36.0312 125.789 36.5V44H122.812V32.1641H125.789Z" fill="#6D6E76"/>
</svg>
